<svg width="288" height="62" fill="none" xmlns="http://www.w3.org/2000/svg"><path d="M4.718 9.992A4.68 4.68 0 009.4 5.316 4.677 4.677 0 004.718.644a4.675 4.675 0 100 9.348z" fill="#FFC80A"/><path d="M4.718 9.361A4.68 4.68 0 009.4 4.686 4.677 4.677 0 004.718.013a4.675 4.675 0 100 9.348z" fill="#FFC80A"/><path d="M161.729 15.252l-.005.007v-.007c-6.985 0-13.557 3.13-18.031 8.584-3.451 4.206-5.342 9.483-5.329 14.851v17.86c0 2.76 1.949 4.692 4.74 4.692 2.826 0 4.725-1.888 4.725-4.693V38.49a13.887 13.887 0 013.136-8.706c2.648-3.231 6.578-5.084 10.779-5.084v-.003h.138c1.133 0 2.236-.39 3.103-1.099.963-.789 1.576-1.873 1.731-3.048.16-1.251-.213-2.47-1.078-3.523-1.202-1.467-2.788-1.774-3.909-1.774zM35.471 14.225c-11.935 0-20.272 7.958-20.272 19.352v15.417l.005.127a2.89 2.89 0 01-2.897 2.771 2.904 2.904 0 01-2.898-2.675h-.013V18.469c0-2.762-1.934-4.69-4.7-4.69-2.764 0-4.696 1.928-4.696 4.69v30.525c0 6.77 5.505 12.277 12.276 12.277 6.524 0 11.915-5.092 12.276-11.605.025-.22.043-.444.043-.672V34.119c0-6.495 4.372-10.858 10.876-10.858s10.873 4.363 10.873 10.858v22.426c0 2.764 1.934 4.693 4.7 4.693 2.765 0 4.699-1.93 4.699-4.693V33.576c0-11.394-8.337-19.351-20.272-19.351zm48.9 37.67c-2.978-.021-6.092-1.236-8.763-3.424a13.864 13.864 0 01-5.114-10.866V24.673h9.463a4.545 4.545 0 004.56-4.548 4.567 4.567 0 00-4.573-4.562l-9.45.003V4.705c0-2.762-1.962-4.693-4.73-4.693-2.765 0-4.704 1.931-4.704 4.693v32.9c.008 7.036 3.093 13.628 8.593 18.126 4.318 3.533 9.183 5.322 14.454 5.322h.056c2.766 0 4.7-1.946 4.7-4.733 0-2.645-1.79-4.42-4.491-4.424zm201.677.74l-18.086-18.06 13.763-11.774c.978-.888 1.631-2.366 1.631-3.68 0-2.765-1.934-4.694-4.699-4.694-1.35 0-2.829.615-3.958 1.64l-17.018 14.56V4.692c0-2.761-1.932-4.693-4.7-4.693-2.765 0-4.697 1.932-4.697 4.693v51.894c0 2.762 1.932 4.694 4.697 4.694 2.768 0 4.7-1.932 4.7-4.694V43.878a2.405 2.405 0 01.81-1.782c.994-.883 2.479-.756 3.419.203l17.395 17.352c.889.977 2.369 1.63 3.688 1.63 2.765 0 4.699-1.93 4.699-4.691 0-1.348-.615-2.825-1.644-3.955zm-93.004-.74c-2.979-.021-6.093-1.236-8.766-3.424a13.867 13.867 0 01-5.114-10.866V24.673h9.452c2.529 0 4.367-1.916 4.367-4.553 0-2.64-1.838-4.554-4.367-4.554h-9.452V4.705c0-2.762-1.96-4.693-4.728-4.693-2.765 0-4.704 1.931-4.704 4.693v32.9c.007 7.036 3.093 13.628 8.593 18.126 4.318 3.533 9.183 5.322 14.454 5.322h.058c2.765 0 4.699-1.946 4.699-4.733 0-2.645-1.789-4.42-4.491-4.424" fill="#000"/><path d="M234.895 19.754c-4.262-3.485-9.373-5.328-14.78-5.328-6.981 0-13.551 3.13-18.03 8.59-8.283 10.1-6.847 24.491 3.266 32.763 4.219 3.452 9.521 5.353 14.927 5.353 1.159 0 2.326-.086 3.469-.259.867-.131 2.102-.533 3.056-1.698 1.613-1.97 1.314-4.993-.659-6.602-.737-.604-1.657-.911-2.732-.911-.29 0-.592.022-.895.065-.679.116-1.38.16-2.084.16-8.24 0-14.475-6.331-14.475-14.128 0-7.795 6.329-14.116 14.134-14.116 6.36 0 11.738 4.196 13.514 9.963l-13.534.003a4.206 4.206 0 00-4.211 4.203c0 2.322 1.819 4.198 4.142 4.198h18.005c1.95 0 3.548-.827 4.446-1.921.757-.924 1.126-2.074 1.067-3.325-.331-6.595-3.474-12.796-8.626-17.012v.002zm-108.539 0c-4.262-3.485-9.374-5.328-14.78-5.328-6.982 0-13.552 3.13-18.03 8.59-8.283 10.1-6.847 24.491 3.266 32.763 4.219 3.452 9.521 5.353 14.927 5.353 1.159 0 2.326-.086 3.472-.259.864-.131 2.099-.533 3.052-1.698 1.617-1.97 1.314-4.993-.658-6.602-.737-.604-1.657-.911-2.732-.911-.29 0-.593.022-.895.065-.679.116-1.38.16-2.084.16-8.24 0-14.475-6.331-14.475-14.128 0-7.795 6.329-14.116 14.134-14.116 6.359 0 11.737 4.196 13.514 9.963l-13.537.003a4.206 4.206 0 00-4.209 4.203c0 2.322 1.82 4.198 4.143 4.198h18.005c1.95 0 3.548-.827 4.445-1.921.758-.924 1.126-2.074 1.068-3.325-.331-6.595-3.474-12.796-8.626-17.012" fill="#000"/></svg>