<svg width="37" height="50" fill="none" xmlns="http://www.w3.org/2000/svg"><path d="M34.864 20.76c0 14.59-16.432 27.097-16.432 27.097S2 35.351 2 20.76c0-4.976 1.731-9.747 4.813-13.265C9.894 3.977 14.073 2 18.432 2c4.358 0 8.537 1.977 11.619 5.495 3.081 3.518 4.813 8.29 4.813 13.265z" stroke="#3B404A" stroke-width="3" stroke-linecap="round" stroke-linejoin="round"/><path d="M17.821 26.203c2.857 0 5.173-2.645 5.173-5.906 0-3.262-2.316-5.906-5.173-5.906s-5.173 2.644-5.173 5.906c0 3.261 2.316 5.905 5.173 5.905z" stroke="#3B404A" stroke-width="3" stroke-linecap="round" stroke-linejoin="round"/></svg>