<svg width="257" height="92" fill="none" xmlns="http://www.w3.org/2000/svg"><path d="M45.63 56.872l-.694-4.585h-4.927l-.694 4.585H35.63l4.088-25.269h5.876l4.087 25.269h-4.05zm-1.242-8.014L42.454 36.08 40.52 48.86h3.868zm6.03 4.44c.657 0 1.144-.048 1.46-.144.341-.12.584-.361.73-.722.17-.385.268-.963.292-1.733l.657-19.096h11.35v25.269H60.82V35.213h-3.504l-.437 15.27c-.073 2.31-.56 3.958-1.46 4.945-.9.987-2.36 1.48-4.38 1.48h-.62v-3.61zm27.089-11.046v3.61h-5.512v7.4h6.935v3.61H67.98V31.603h10.95v3.61h-6.935v7.04h5.511zm15.152-10.649h5.584v25.269h-3.796V38.75l-2.774 18.12h-3.796l-2.992-17.868v17.869H81.38V31.603h5.584l2.956 17.941 2.738-17.94zm25.412 0v3.61h-4.197v21.659h-4.015V35.213h-4.197v-3.61h12.409zm11.294 10.65v3.609h-5.511v7.4h6.934v3.61h-10.949V31.603h10.949v3.61h-6.934v7.04h5.511zm13.109 1.624l4.489 12.995h-4.234l-3.285-10-3.321 10h-3.759l4.489-12.995-4.197-12.274h4.16l3.03 9.313 3.102-9.313h3.723l-4.197 12.274zm6.485 12.995V31.603h4.014v10.83h4.562v-10.83h4.088v25.269h-4.088v-10.83h-4.562v10.83h-4.014zm15.246-19.204c0-2.022.524-3.586 1.57-4.693 1.046-1.107 2.555-1.66 4.525-1.66 1.971 0 3.48.553 4.526 1.66 1.046 1.107 1.569 2.671 1.569 4.693v13.14c0 2.02-.523 3.585-1.569 4.692-1.046 1.107-2.555 1.66-4.526 1.66-1.97 0-3.479-.553-4.525-1.66-1.046-1.107-1.57-2.671-1.57-4.693v-13.14zm4.015 13.392c0 1.66.694 2.49 2.08 2.49 1.387 0 2.081-.83 2.081-2.49V37.415c0-1.66-.694-2.49-2.081-2.49-1.386 0-2.08.83-2.08 2.49V51.06zm27.693-19.457v3.61h-4.198v21.659h-4.014V35.213h-4.197v-3.61h12.409zm7.68 0c1.995 0 3.492.53 4.489 1.588.998 1.06 1.497 2.612 1.497 4.657v3.285c0 2.046-.499 3.598-1.497 4.657-.997 1.059-2.494 1.588-4.489 1.588h-1.898v9.494h-4.014V31.603h5.912zm-1.898 12.165h1.898c.657 0 1.144-.18 1.46-.541.341-.361.511-.975.511-1.841v-3.79c0-.867-.17-1.48-.511-1.841-.316-.361-.803-.542-1.46-.542h-1.898v8.555zm19.269-1.516v3.61h-5.511v7.4h6.934v3.61h-10.949V31.603h10.949v3.61h-6.934v7.04h5.511zm14.605-16.28c0 1.251-.365 2.238-1.095 2.96-.73.698-1.788 1.047-3.175 1.047-1.363 0-2.397-.35-3.103-1.047-.681-.698-1.046-1.685-1.094-2.96h2.481c.049.65.207 1.095.475 1.336.267.216.681.324 1.241.324.584 0 1.022-.12 1.314-.36.292-.241.462-.674.511-1.3h2.445zm-1.57 13.103v17.797h3.614V31.603h-4.416l-3.285 10.433-1.46 5.559V31.603h-3.577v25.269h4.124l3.358-11.588 1.642-6.209zm18.129 17.797h-8.577v3.393h-3.905v-6.93h1.569c.341-.41.572-.867.694-1.373.146-.505.243-1.143.292-1.913l.912-18.446h11.241v21.731h1.752v6.931h-3.978v-3.393zm-5.986-6.895c-.048.915-.17 1.625-.365 2.13-.17.505-.425.914-.766 1.227h5.256V35.213h-3.395l-.73 14.764z" fill="#fff"/><path d="M101.254 15.259c-58.346-34.31-97.896 19.979-65.05 71.376.482.753-.41 1.513-1.022.861-35.884-38.127-8.745-121.77 66.072-72.237z" fill="url(#paint0_radial)"/><path d="M137.552 63.3c-10.714 5.567-57.123 26.633-121.823 12.032-.943-.213-.63-1.864.33-1.752 24.078 2.817 71.013 5.169 111.288-11.51a.769.769 0 01.295-.06h9.545c.769 0 1.046.935.365 1.29z" fill="url(#paint1_radial)"/><path d="M136.134 8.4c.487 4.033 2.33 12.136.888 16.162-.223.624.224 1.51.894 1.51h4.808c.42 0 .762-.335.735-.75-.482-7.643-7.867-21.41-7.325-16.922z" fill="url(#paint2_radial)"/><path d="M45.593 31.603h-5.876l-4.088 25.269h3.686l.694-4.585h4.927l.693 4.585h4.051l-4.087-25.269zm-3.14 4.476l1.935 12.78H40.52l1.934-12.78zm7.966 20.829h.62c4.015 0 5.694-1.805 5.84-6.425l.438-15.27h3.503v21.659h4.088V31.603h-11.35L52.9 50.7c-.073 2.346-.657 2.6-2.481 2.6v3.609zm21.576-21.695h6.935v-3.61H67.98v25.269h10.95v-3.61h-6.935v-7.4h5.511v-3.61h-5.51v-7.039zm14.97-3.61h-5.584v25.269h3.504V39.003l2.992 17.869h3.796l2.774-18.121v18.12h3.796V31.604h-5.584l-2.739 17.94-2.956-17.94zm18.697 3.61h4.197v21.659h4.015V35.213h4.197v-3.61h-12.409v3.61zm18.192 0h6.934v-3.61h-10.949v25.269h10.949v-3.61h-6.934v-7.4h5.511v-3.61h-5.511v-7.039zm19.094-3.61l-3.102 9.313-3.03-9.313h-4.16l4.197 12.274-4.489 12.995h3.759l3.321-10 3.285 10h4.234l-4.489-12.995 4.197-12.274h-3.723zm10.025 14.44h4.562v10.829h4.088V31.603h-4.088v10.83h-4.562v-10.83h-4.014v25.269h4.014v-10.83zm15.247-8.628c0-1.805.803-2.49 2.08-2.49 1.278 0 2.081.685 2.081 2.49V51.06c0 1.805-.803 2.49-2.081 2.49-1.277 0-2.08-.685-2.08-2.49V37.415zm-4.015 13.392c0 4.043 2.154 6.354 6.095 6.354 3.942 0 6.095-2.31 6.095-6.354v-13.14c0-4.042-2.153-6.353-6.095-6.353-3.941 0-6.095 2.31-6.095 6.354v13.14zm19.299-15.594h4.197v21.659h4.014V35.213h4.198v-3.61h-12.409v3.61zm20.089-3.61h-5.912v25.269h4.014v-9.494h1.898c4.015 0 5.986-2.202 5.986-6.245v-3.285c0-4.043-1.971-6.245-5.986-6.245zm0 3.61c1.278 0 1.971.578 1.971 2.383v3.79c0 1.805-.693 2.382-1.971 2.382h-1.898v-8.555h1.898zm11.86 0h6.934v-3.61h-10.949v25.269h10.949v-3.61h-6.934v-7.4h5.511v-3.61h-5.511v-7.039zm13.546 21.659h-4.124V31.603h3.577v15.992l1.46-5.56 3.285-10.432h4.416v25.269h-3.614V39.075l-1.642 6.21-3.358 11.587zm4.125-30.9c-.11 1.336-.73 1.66-1.825 1.66-1.059 0-1.606-.324-1.716-1.66h-2.481c.073 2.455 1.386 4.007 4.197 4.007 2.846 0 4.27-1.552 4.27-4.007h-2.445zm22.982 34.293v-6.93h-1.752V31.602h-11.241l-.912 18.446c-.073 1.48-.292 2.419-.986 3.285h-1.569v6.931h3.905v-3.393h8.577v3.393h3.978zm-9.234-25.052h3.395v18.121h-5.256c.657-.613 1.022-1.444 1.131-3.357l.73-14.764z" fill="#fff"/><path d="M101.254 15.259c-58.346-34.31-97.896 19.979-65.05 71.376.482.753-.41 1.513-1.022.861-35.884-38.127-8.745-121.77 66.072-72.237z" fill="url(#paint3_radial)"/><path d="M137.552 63.3c-10.714 5.567-57.123 26.633-121.823 12.032-.943-.213-.63-1.864.33-1.752 24.078 2.817 71.013 5.169 111.288-11.51a.769.769 0 01.295-.06h9.545c.769 0 1.046.935.365 1.29z" fill="url(#paint4_radial)"/><path d="M136.134 8.4c.487 4.033 2.33 12.136.888 16.162-.223.624.224 1.51.894 1.51h4.808c.42 0 .762-.335.735-.75-.482-7.643-7.867-21.41-7.325-16.922z" fill="url(#paint5_radial)"/><defs><radialGradient id="paint0_radial" cx="0" cy="0" r="1" gradientUnits="userSpaceOnUse" gradientTransform="matrix(91.09926 -17.15378 1549.43436 8228.64319 1.858 34.898)"><stop offset="1" stop-color="#09FF89"/></radialGradient><radialGradient id="paint1_radial" cx="0" cy="0" r="1" gradientUnits="userSpaceOnUse" gradientTransform="rotate(-1.025 4621.17 990.559) scale(196.203 1742.93)"><stop offset="1" stop-color="#09FF89"/></radialGradient><radialGradient id="paint2_radial" cx="0" cy="0" r="1" gradientUnits="userSpaceOnUse" gradientTransform="matrix(8.2569 -2.79065 420.45385 1244.02884 135.04 16.462)"><stop offset="1" stop-color="#09FF89"/></radialGradient><radialGradient id="paint3_radial" cx="0" cy="0" r="1" gradientUnits="userSpaceOnUse" gradientTransform="matrix(91.09926 -17.15378 1549.43436 8228.64319 1.858 34.898)"><stop offset="1" stop-color="#09FF89"/></radialGradient><radialGradient id="paint4_radial" cx="0" cy="0" r="1" gradientUnits="userSpaceOnUse" gradientTransform="rotate(-1.025 4621.17 990.559) scale(196.203 1742.93)"><stop offset="1" stop-color="#09FF89"/></radialGradient><radialGradient id="paint5_radial" cx="0" cy="0" r="1" gradientUnits="userSpaceOnUse" gradientTransform="matrix(8.2569 -2.79065 420.45385 1244.02884 135.04 16.462)"><stop offset="1" stop-color="#09FF89"/></radialGradient></defs></svg>