<svg width="39" height="44" fill="none" xmlns="http://www.w3.org/2000/svg"><path d="M23.679 9.645c1.637.365 3.14 1.278 4.32 2.623 1.179 1.345 1.98 3.06 2.299 4.927M23.679 2c3.4.431 6.571 2.168 8.992 4.926 2.42 2.757 3.947 6.372 4.329 10.25m-1.676 15.252v5.734a4.289 4.289 0 01-.28 1.547 3.855 3.855 0 01-.805 1.285 3.3 3.3 0 01-1.192.805 2.97 2.97 0 01-1.375.186c-5.157-.64-10.11-2.65-14.46-5.868-4.05-2.934-7.482-6.85-10.054-11.468-2.832-4.986-4.594-10.663-5.144-16.57a4.329 4.329 0 01.161-1.565 3.97 3.97 0 01.701-1.357 3.404 3.404 0 011.121-.92 3.003 3.003 0 011.351-.325h5.027c.813-.01 1.601.319 2.218.924s1.02 1.445 1.133 2.363a27.41 27.41 0 001.173 5.37c.225.685.274 1.428.14 2.143a4.01 4.01 0 01-.894 1.89l-2.128 2.428c2.385 4.785 5.858 8.747 10.053 11.468l2.128-2.428a3.25 3.25 0 011.658-1.02 2.963 2.963 0 011.878.16c1.52.647 3.1 1.096 4.708 1.338.814.131 1.558.599 2.09 1.314.53.716.813 1.629.792 2.566z" stroke="#3B404A" stroke-width="3" stroke-linecap="round" stroke-linejoin="round"/></svg>