<svg width="33" height="33" fill="none" xmlns="http://www.w3.org/2000/svg"><path d="M20.692 6.875a6.875 6.875 0 015.431 5.431m-5.43-10.931a12.375 12.375 0 0110.93 10.918m-1.375 10.972v4.125a2.75 2.75 0 01-2.997 2.75 27.211 27.211 0 01-11.866-4.221 26.813 26.813 0 01-8.25-8.25A27.212 27.212 0 012.914 5.747 2.75 2.75 0 015.65 2.75h4.125a2.75 2.75 0 012.75 2.365 17.65 17.65 0 00.962 3.864 2.75 2.75 0 01-.619 2.901l-1.746 1.746a21.998 21.998 0 008.25 8.25l1.747-1.746a2.749 2.749 0 012.9-.619c1.248.466 2.544.789 3.865.963a2.75 2.75 0 012.364 2.791z" stroke="#A5B2CE" stroke-width="2" stroke-linecap="round" stroke-linejoin="round"/></svg>